<svg width="181" height="26" viewBox="0 0 181 26" fill="none" xmlns="http://www.w3.org/2000/svg">
<g clip-path="url(#clip0_215_3729)">
<path d="M0.966431 2.30229H5.93781L12.2226 11.126L18.5033 2.29395H23.4706V23.0951H17.9223V10.9885L12.2226 18.6249L6.51883 11.0052V23.1201H0.966431V2.30229Z" fill="white"/>
<path d="M36.0811 2.30225H53.4052V7.16821H41.6335V10.2928H51.0893V15.0879H41.6335V18.2083H53.4052V23.0951H36.0811V2.30225Z" fill="white"/>
<path d="M74.772 10.476H85.9096C86.3555 16.096 84.3302 23.6991 74.903 23.6991C68.3563 23.6991 63.4995 18.7956 63.4995 12.7007C63.4995 6.6057 68.3522 1.7064 74.903 1.7064C77.2463 1.67779 79.5417 2.38313 81.4783 3.72694C82.2931 4.28833 83.0307 4.95806 83.6714 5.71833L80.3081 9.58025C79.8679 9.07341 79.3676 8.62422 78.8187 8.24296C77.6808 7.39538 76.3127 6.92813 74.903 6.90565C73.3935 6.90565 71.9458 7.51619 70.8784 8.60297C69.8111 9.68974 69.2114 11.1637 69.2114 12.7007C69.2114 14.2376 69.8111 15.7115 70.8784 16.7983C71.9458 17.8851 73.3935 18.4956 74.903 18.4956C79.4815 18.4956 80.2221 14.8837 80.2221 14.8837H74.772V10.476Z" fill="white"/>
<path d="M137.698 10.476H148.835C149.281 16.096 147.256 23.6991 137.829 23.6991C131.282 23.6991 126.429 18.7957 126.429 12.7007C126.429 6.60575 131.282 1.70645 137.829 1.70645C140.172 1.67703 142.468 2.38244 144.404 3.72698C145.22 4.28706 145.958 4.95694 146.597 5.71837L143.238 9.5803C142.796 9.07341 142.295 8.62423 141.744 8.24301C140.607 7.39494 139.238 6.92763 137.829 6.90569C136.319 6.90569 134.871 7.51624 133.804 8.60301C132.737 9.68979 132.137 11.1638 132.137 12.7007C132.137 14.2376 132.737 15.7116 133.804 16.7984C134.871 17.8851 136.319 18.4957 137.829 18.4957C142.407 18.4957 143.148 14.8837 143.148 14.8837H137.698V10.476Z" fill="white"/>
<path d="M106.196 1.70654C112.743 1.70654 117.599 6.61001 117.599 12.7008C117.599 18.7916 112.747 23.6992 106.196 23.6992C99.6451 23.6992 94.7964 18.7958 94.7964 12.7008C94.7964 6.60584 99.6492 1.70654 106.196 1.70654ZM106.196 18.4958C107.321 18.4941 108.421 18.1529 109.356 17.5151C110.291 16.8773 111.019 15.9717 111.448 14.9127C111.878 13.8536 111.989 12.6887 111.769 11.5651C111.548 10.4416 111.006 9.40977 110.209 8.60016C109.413 7.79055 108.399 7.23945 107.295 7.01652C106.191 6.7936 105.047 6.90886 104.008 7.34772C102.968 7.78657 102.08 8.52931 101.455 9.48212C100.83 10.4349 100.496 11.555 100.496 12.7008C100.487 13.465 100.629 14.2233 100.912 14.9309C101.196 15.6386 101.615 16.2814 102.146 16.8214C102.678 17.3614 103.309 17.7878 104.005 18.0753C104.7 18.3629 105.445 18.5058 106.196 18.4958Z" fill="white"/>
<path d="M169.601 1.70654C176.147 1.70654 181 6.61001 181 12.7008C181 18.7916 176.147 23.6992 169.601 23.6992C163.054 23.6992 158.201 18.7958 158.201 12.7008C158.201 6.60584 163.05 1.70654 169.601 1.70654ZM169.601 18.4958C170.726 18.4941 171.825 18.1529 172.76 17.5151C173.695 16.8773 174.423 15.9717 174.853 14.9127C175.283 13.8536 175.394 12.6887 175.174 11.5651C174.953 10.4416 174.41 9.40977 173.614 8.60016C172.818 7.79055 171.804 7.23945 170.7 7.01652C169.596 6.7936 168.452 6.90886 167.412 7.34772C166.373 7.78657 165.485 8.52931 164.859 9.48212C164.234 10.4349 163.901 11.555 163.901 12.7008C163.893 13.4648 164.034 14.2228 164.318 14.9302C164.602 15.6377 165.021 16.2802 165.552 16.8201C166.083 17.36 166.715 17.7864 167.41 18.0741C168.105 18.3619 168.85 18.5053 169.601 18.4958Z" fill="white"/>
</g>
<defs>
<clipPath id="clip0_215_3729">
<rect width="180.034" height="24.55" fill="white" transform="translate(0.966431 0.725098)"/>
</clipPath>
</defs>
</svg>
