<svg width="114" height="34" viewBox="0 0 114 34" fill="none" xmlns="http://www.w3.org/2000/svg">
<path d="M0.147305 7.86557H5.72956V25.801H0.147305V7.86557ZM5.91672 2.8799C5.91672 4.41989 4.74086 5.66733 2.90181 5.66733C1.14007 5.66733 -0.0357867 4.41989 0.000831611 2.8799C-0.0357867 1.26677 1.14007 0.0559082 2.93843 0.0559082C4.7368 0.0559082 5.87603 1.26677 5.91672 2.8799Z" fill="#E84F35"/>
<path d="M66.8784 22.8184C66.8784 20.8315 68.2414 19.3931 70.1985 19.3931C72.1555 19.3931 73.4819 20.7949 73.4819 22.8184C73.4819 24.7729 72.1515 26.2072 70.1619 26.2072C68.2414 26.2072 66.8784 24.7729 66.8784 22.8184Z" fill="#E84F35"/>
<path d="M15.7102 12.5745C16.1903 12.6842 16.7802 12.7248 17.5899 12.7248C20.5804 12.7248 22.4235 11.2133 22.4235 8.67373C22.4235 6.39016 20.8367 5.02895 18.0334 5.02895C16.8901 5.02895 16.1171 5.13866 15.7102 5.24837V12.5745ZM10.1401 1.3029C11.8734 1.00628 14.3106 0.786865 17.7405 0.786865C21.207 0.786865 23.6808 1.44918 25.3408 2.77788C26.9276 4.02938 27.9976 6.09354 27.9976 8.52746C27.9976 10.9573 27.1839 13.0215 25.711 14.4233C23.7906 16.2274 20.9547 17.0401 17.6306 17.0401C16.8942 17.0401 16.2269 17.0035 15.7102 16.9304V25.8087H10.1401V1.3029Z" fill="white"/>
<path d="M40.3172 17.2919C37.3674 17.2553 35.0808 17.9542 35.0808 20.1281C35.0808 21.5624 36.041 22.2654 37.2942 22.2654C38.6938 22.2654 39.8412 21.3471 40.2074 20.2053C40.2806 19.9127 40.3172 19.5796 40.3172 19.2464V17.2919ZM40.9804 25.8005L40.6468 23.9964H40.537C39.357 25.4348 37.5098 26.2068 35.3738 26.2068C31.7201 26.2068 29.5433 23.5575 29.5433 20.6807C29.5433 16.0038 33.7504 13.7568 40.1301 13.7934V13.5374C40.1301 12.5785 39.6134 11.2173 36.8466 11.2173C35.0035 11.2173 33.0465 11.843 31.8666 12.5825L30.8331 8.97434C32.0863 8.27139 34.56 7.38965 37.8435 7.38965C43.857 7.38965 45.7734 10.9288 45.7734 15.1627V21.4284C45.7734 23.1593 45.8466 24.8172 46.0297 25.8127H40.9804V25.8005Z" fill="white"/>
<path d="M53.9682 7.78809L56.6617 16.6298C56.9546 17.6985 57.3249 19.0231 57.5446 19.9821H57.6545C57.9108 19.0231 58.2078 17.6619 58.4641 16.6298L60.6775 7.78809H66.691L62.4881 19.6489C59.9044 26.7962 58.1712 29.669 56.1409 31.4731C54.1879 33.1675 52.121 33.7567 50.7173 33.9436L49.5374 29.1936C50.2372 29.0839 51.1242 28.7507 51.9705 28.2346C52.8168 27.7917 53.7404 26.91 54.2937 25.9876C54.4768 25.7316 54.5867 25.435 54.5867 25.179C54.5867 24.9962 54.55 24.6996 54.3263 24.2567L47.7228 7.78809H53.9682Z" fill="white"/>
<path d="M93.882 20.0186C93.882 22.3753 93.9552 24.2932 94.0284 25.8007H89.1582L88.9019 23.2611H88.792C88.0922 24.3664 86.3956 26.207 83.1447 26.207C79.4951 26.207 76.8016 23.9235 76.8016 18.3608V7.78809H82.4449V17.4791C82.4449 20.0958 83.2952 21.6764 85.2482 21.6764C86.7984 21.6764 87.6813 20.6078 88.0515 19.7261C88.198 19.3929 88.2346 18.954 88.2346 18.5111V7.78809H93.8779V20.0186H93.882Z" fill="white"/>
<path d="M107.972 17.2919C105.018 17.2553 102.731 17.9542 102.731 20.1281C102.731 21.5624 103.692 22.2654 104.945 22.2654C106.349 22.2654 107.492 21.3471 107.858 20.2053C107.931 19.9127 107.972 19.5796 107.972 19.2464V17.2919ZM108.639 25.8005L108.306 23.9964H108.196C107.016 25.4348 105.173 26.2068 103.033 26.2068C99.3789 26.2068 97.2062 23.5575 97.2062 20.6807C97.2062 16.0038 101.409 13.7568 107.793 13.7934V13.5374C107.793 12.5785 107.276 11.2173 104.509 11.2173C102.666 11.2173 100.709 11.843 99.5294 12.5825L98.496 8.97434C99.7491 8.27139 102.223 7.38965 105.502 7.38965C111.516 7.38965 113.432 10.9288 113.432 15.1627V21.4284C113.432 23.1593 113.505 24.8172 113.688 25.8127H108.639V25.8005Z" fill="white"/>
</svg>
