<svg width="556" height="612" viewBox="0 0 556 612" fill="none" xmlns="http://www.w3.org/2000/svg">
<path d="M-39.1263 139.135C9.53862 54.8452 33.8804 12.6841 68.0399 3.46317C82.5199 -0.467504 97.7786 -0.523375 112.287 3.30118C146.489 12.3363 171.016 54.3469 220.1 138.387L224.229 145.484C242.214 176.262 251.151 191.619 264.526 201.848C270.401 206.354 276.84 210.071 283.679 212.906C299.225 219.375 317.073 219.482 352.721 219.668L360.932 219.696C458.254 220.184 506.9 220.419 531.826 245.522C542.392 256.174 549.973 269.417 553.809 283.922C562.903 318.115 538.561 360.277 489.896 444.567L455.248 504.579C422.66 561.024 406.361 589.255 381.109 601.712C370.173 607.098 358.288 610.287 346.125 611.099C318.043 612.946 289.829 596.657 233.4 564.077L-14.3772 421.023C-70.8063 388.444 -99.0209 372.154 -111.462 346.911C-116.84 335.972 -120.021 324.084 -120.824 311.921C-122.662 283.823 -106.363 255.593 -73.7743 199.147L-39.1263 139.135Z" fill="#9FE3DF" fill-opacity="0.1"/>
</svg>
