<svg width="450" height="388" viewBox="0 0 450 388" fill="none" xmlns="http://www.w3.org/2000/svg">
<path d="M14.0027 220.042C1.04403 144.549 -5.43776 106.789 9.69632 84.1764C16.1009 74.5778 24.8322 66.9484 35.0154 62.0528C59.0309 50.5231 93.4897 63.867 162.435 90.55L168.248 92.8114C193.503 102.58 206.083 107.472 218.723 107.036C224.281 106.852 229.78 105.908 235.081 104.228C247.143 100.424 257.439 91.6047 277.992 73.9734L282.718 69.9029C338.818 21.7552 366.854 -2.31628 393.34 0.544605C404.573 1.76408 415.349 6.04498 424.588 12.9583C446.396 29.2291 452.878 66.9899 465.837 142.483L475.063 196.231C483.741 246.785 488.081 272.069 479.63 292.216C475.966 300.935 470.691 308.792 464.103 315.34C448.881 330.442 424.783 334.578 376.587 342.851L164.963 379.177C116.767 387.45 92.6693 391.587 73.2821 382.426C64.8879 378.45 57.2948 372.802 50.9329 365.804C36.2469 349.629 31.9067 324.344 23.2289 273.791L14.0027 220.042Z" fill="#9FE3DF" fill-opacity="0.1"/>
</svg>
